<?xml version="1.0" standalone="no"?>
<!DOCTYPE svg PUBLIC "-//W3C//DTD SVG 20010904//EN"
 "http://www.w3.org/TR/2001/REC-SVG-20010904/DTD/svg10.dtd">
<svg version="1.0" xmlns="http://www.w3.org/2000/svg"
 width="500.000000pt" height="500.000000pt" viewBox="0 0 500.000000 500.000000"
 preserveAspectRatio="xMidYMid meet">
<metadata>
Created by potrace 1.14, written by Peter Selinger 2001-2017
</metadata>
<g transform="translate(0.000000,500.000000) scale(0.100000,-0.100000)"
fill="#000000" stroke="none">
<path d="M2447 3643 c-2 -1 -32 -5 -67 -8 -82 -7 -220 -40 -276 -65 -24 -10
-44 -17 -44 -14 0 6 -149 -74 -200 -109 -101 -68 -208 -170 -287 -276 -93
-122 -178 -317 -200 -456 -2 -16 -8 -47 -13 -68 -9 -43 -6 -282 5 -337 59
-314 202 -545 460 -748 102 -80 302 -167 455 -198 282 -56 607 9 855 171 17
11 32 22 35 25 3 3 23 18 45 35 56 42 142 130 196 200 64 84 108 161 159 280
20 47 49 144 55 185 3 25 10 62 15 84 9 41 6 278 -5 336 -38 205 -119 383
-251 546 -47 59 -190 193 -206 194 -4 0 -13 6 -20 13 -7 7 -35 26 -63 42 -153
91 -321 147 -485 161 -89 7 -160 11 -163 7z"/>
</g>
</svg>
